<?xml version="1.0" standalone="no"?>
<!DOCTYPE svg PUBLIC "-//W3C//DTD SVG 20010904//EN"
 "http://www.w3.org/TR/2001/REC-SVG-20010904/DTD/svg10.dtd">
<svg version="1.0" xmlns="http://www.w3.org/2000/svg"
 width="860.000000pt" height="643.000000pt" viewBox="0 0 860.000000 643.000000"
 preserveAspectRatio="xMidYMid meet">

<g transform="translate(0.000000,643.000000) scale(0.100000,-0.100000)"
fill="#000000" stroke="none">
<path d="M4375 6014 c-22 -2 -89 -9 -150 -14 -212 -21 -424 -89 -441 -142 -10
-33 4 -65 38 -81 l32 -16 -24 -9 c-14 -5 -57 -22 -95 -36 -108 -40 -192 -94
-275 -176 -97 -97 -125 -151 -125 -247 0 -65 3 -75 31 -110 20 -24 46 -43 73
-52 l43 -13 -77 -42 c-180 -98 -306 -262 -370 -483 -64 -219 -32 -355 82 -355
40 0 76 29 103 82 23 46 28 70 40 185 5 53 17 109 25 126 20 38 116 100 166
106 51 7 51 -8 1 -113 -73 -150 -85 -196 -90 -338 -5 -164 11 -234 70 -301 47
-54 84 -75 130 -75 66 0 110 57 110 144 0 28 -10 97 -21 153 -19 92 -20 106
-7 137 18 43 89 122 116 129 25 6 25 -10 4 -78 -55 -179 -26 -311 81 -372 86
-49 170 -12 195 84 27 111 104 203 208 251 82 38 235 43 347 13 310 -85 594
-337 701 -619 30 -80 54 -212 54 -297 0 -149 -88 -519 -172 -722 -20 -48 -26
-54 -87 -81 -142 -63 -156 -66 -224 -54 -34 7 -98 18 -142 26 -131 23 -398 42
-403 28 -2 -7 -10 -12 -18 -12 -8 0 -14 -3 -14 -7 0 -5 -10 -13 -23 -19 -196
-100 -206 -104 -299 -89 -113 17 -349 73 -469 112 -12 3 -20 -5 -28 -27 -12
-35 -10 -35 -106 -12 -22 6 -75 17 -118 26 -85 17 -70 20 -168 -36 -13 -7 -26
-15 -29 -18 -17 -17 -137 -76 -197 -96 -43 -15 -48 -14 -93 5 -27 12 -53 21
-59 21 -6 0 -40 13 -76 30 -36 16 -72 30 -80 30 -9 0 -23 4 -33 9 -9 5 -46 16
-82 23 l-65 15 -45 -32 c-90 -62 -184 -93 -385 -125 -38 -7 -104 -10 -145 -8
l-75 3 -57 85 c-32 47 -81 138 -110 202 -28 65 -52 117 -53 115 -4 -5 15 -250
25 -320 15 -118 57 -298 101 -430 97 -297 266 -556 543 -833 462 -461 1060
-755 1704 -839 583 -75 1205 45 1727 333 674 372 1177 990 1389 1709 72 240
104 443 113 703 22 665 -185 1311 -594 1859 -169 226 -459 489 -695 630 -281
168 -629 288 -975 337 -103 14 -384 25 -458 18z m366 -74 c618 -63 1199 -389
1614 -905 156 -194 332 -502 429 -751 68 -177 128 -410 161 -624 35 -229 30
-601 -11 -839 -17 -101 -55 -273 -60 -269 -1 2 4 46 12 98 33 228 33 670 0
925 -60 447 -194 856 -367 1111 -123 182 -178 176 -128 -15 28 -107 23 -136
-29 -158 -42 -17 -52 -29 -52 -59 0 -27 50 -123 123 -239 32 -49 65 -113 73
-143 21 -73 20 -164 -4 -233 -17 -48 -19 -68 -11 -130 13 -116 10 -317 -6
-446 -31 -237 -89 -395 -260 -714 -58 -108 -95 -187 -93 -201 2 -14 13 -24 32
-29 43 -12 65 -37 82 -97 26 -89 4 -233 -55 -364 -55 -121 -282 -411 -485
-619 -262 -268 -453 -398 -708 -482 -105 -35 -297 -81 -305 -74 -2 2 25 14 59
27 86 30 258 119 343 176 350 234 721 608 953 962 94 143 124 246 92 321 -25
62 -105 86 -170 52 -22 -11 -40 -19 -40 -17 0 2 25 59 56 127 74 162 173 415
230 587 89 267 124 459 124 673 0 188 -33 348 -99 476 -44 88 -138 158 -162
122 -6 -8 -7 -48 -2 -94 10 -111 10 -139 -2 -144 -5 -3 -39 54 -75 126 -36 71
-93 167 -125 213 -210 292 -578 469 -1028 496 -303 18 -580 -69 -727 -229 -73
-79 -130 -257 -130 -408 0 -71 -21 -99 -74 -99 -68 0 -135 89 -136 179 0 24
14 96 31 159 17 62 28 120 25 128 -15 40 -122 0 -180 -67 -79 -93 -88 -144
-56 -315 12 -65 12 -73 -6 -110 -16 -32 -25 -40 -53 -42 -27 -3 -40 3 -67 29
-55 53 -77 125 -78 254 0 134 14 188 91 336 56 107 60 128 33 169 -13 21 -96
18 -140 -4 -71 -37 -138 -95 -159 -139 -13 -26 -23 -74 -27 -123 -11 -127 -57
-224 -99 -207 -22 8 -35 62 -35 147 0 150 44 265 155 403 117 146 213 206 469
293 176 60 203 73 218 105 9 21 7 33 -16 76 -14 29 -25 53 -24 54 12 9 76 25
99 25 36 0 86 -43 94 -80 8 -39 -21 -101 -78 -166 -31 -36 -36 -44 -17 -34 48
26 120 103 131 141 38 126 -136 245 -268 183 -19 -9 -82 -68 -140 -130 -58
-62 -120 -120 -138 -129 -54 -25 -92 -20 -131 19 -31 31 -34 40 -34 90 0 72
26 124 95 191 104 102 278 186 474 230 211 47 225 75 43 90 -45 4 -90 14 -99
21 -17 13 -17 15 2 29 87 68 553 114 846 85z m-900 -637 c14 -23 18 -38 12
-44 -11 -11 -224 -92 -229 -87 -1 2 36 45 83 96 93 101 94 101 134 35z m1559
-2024 c-37 -548 -119 -798 -369 -1112 -143 -180 -373 -381 -516 -451 -72 -36
-145 -55 -145 -39 0 5 26 31 58 58 31 26 50 46 42 43 -8 -3 -62 -25 -120 -48
-256 -102 -308 -118 -420 -123 -110 -5 -157 -18 -213 -61 -38 -29 -145 -73
-272 -112 -126 -39 -245 -38 -453 5 -463 95 -879 301 -1313 651 -12 9 -30 57
-48 130 -31 117 -71 310 -71 337 0 8 32 -27 71 -78 202 -265 464 -522 679
-665 279 -185 519 -241 990 -231 252 6 409 23 610 66 237 52 459 132 604 218
201 120 538 508 671 772 79 159 151 400 196 663 13 70 24 126 26 125 1 -2 -2
-68 -7 -148z m175 -428 c8 -46 15 -107 15 -135 1 -140 60 -91 186 152 70 135
108 185 124 162 16 -23 8 -115 -10 -115 -33 0 -90 -122 -189 -409 -70 -200
-120 -320 -193 -456 -160 -297 -320 -499 -538 -678 -141 -116 -172 -152 -132
-152 52 1 247 139 393 278 224 214 375 437 489 719 26 64 52 109 84 145 25 28
46 48 46 45 0 -4 -18 -52 -41 -107 -22 -56 -39 -106 -37 -112 4 -10 61 53 109
122 13 19 43 73 66 120 32 65 42 79 42 58 1 -41 -34 -121 -96 -223 -31 -49
-67 -113 -79 -142 -13 -28 -43 -78 -67 -110 -56 -74 -86 -122 -144 -231 -59
-112 -121 -189 -238 -300 -231 -219 -500 -394 -777 -507 -38 -15 -68 -31 -68
-36 0 -19 109 -7 248 28 68 16 99 8 71 -19 -50 -49 -202 -132 -327 -177 -243
-89 -641 -137 -1067 -129 l-240 5 -80 33 c-44 19 -89 40 -100 48 l-20 14 20
-6 c44 -16 379 -6 535 14 334 44 528 108 506 166 -5 13 -21 15 -89 14 -115 -3
-117 -2 -117 19 0 11 30 59 66 108 80 106 105 158 111 232 7 98 -5 98 -104 -5
-49 -51 -108 -103 -133 -117 -98 -55 -268 -98 -320 -82 -26 8 -26 35 0 68 18
23 28 67 14 67 -3 0 -40 -9 -82 -19 -369 -93 -770 -65 -1102 77 -142 60 -189
93 -266 184 -94 111 -96 115 -22 67 77 -50 361 -189 444 -217 115 -39 182 -45
458 -39 285 6 345 15 497 76 74 29 108 46 313 156 l109 58 266 2 c386 3 543
29 709 121 171 94 351 279 459 472 19 35 37 61 40 59 16 -17 -123 -307 -214
-446 -118 -181 -224 -266 -605 -485 -27 -15 -48 -29 -48 -31 0 -9 109 29 176
61 166 79 321 200 436 343 281 348 454 838 459 1296 l1 100 19 -60 c11 -33 26
-98 34 -144z m-477 -276 c-81 -138 -678 -217 -1088 -145 -63 11 -160 31 -215
44 -153 37 -149 37 -155 -4 -4 -31 -12 -39 -62 -65 -78 -41 -86 -50 -65 -73 9
-10 17 -23 17 -29 0 -20 -52 -45 -106 -50 -52 -6 -55 -5 -87 31 l-34 36 -64
-20 c-35 -11 -76 -20 -91 -20 -33 0 -99 37 -77 44 8 2 55 16 104 31 179 54
304 130 335 205 7 16 16 27 21 24 36 -22 324 -82 549 -115 160 -23 369 -27
488 -10 163 24 370 80 485 131 62 28 69 25 45 -15z m-2305 -166 c45 -23 149
-79 230 -126 178 -102 232 -126 334 -152 125 -31 233 -41 442 -41 195 0 196
-1 171 -20 -14 -10 -63 -38 -110 -61 -76 -38 -94 -42 -175 -47 -52 -2 -115 1
-150 8 -106 22 -123 22 -169 5 -42 -16 -49 -16 -95 -1 -27 9 -56 16 -64 16 -7
0 -38 -28 -69 -63 -54 -61 -120 -108 -134 -94 -4 4 4 31 18 59 35 70 42 116
28 169 -16 59 -29 74 -45 53 -8 -12 -20 -15 -39 -10 -26 6 -39 27 -75 119 -17
42 -38 31 -85 -44 -49 -79 -70 -105 -114 -141 -70 -58 -79 -29 -27 81 38 80
43 109 19 118 -10 4 -31 -10 -60 -39 -91 -93 -248 -146 -393 -135 -42 4 -103
12 -136 18 -58 12 -63 15 -162 118 -57 58 -103 109 -103 113 0 4 19 0 43 -8
82 -30 241 -64 327 -70 175 -13 340 43 445 151 33 35 61 63 63 64 1 0 39 -18
85 -40z m1711 -178 c84 -22 220 -28 289 -12 20 5 37 6 37 2 0 -4 -24 -30 -52
-58 -55 -54 -67 -59 -203 -81 -48 -7 -50 -9 -47 -38 2 -21 -4 -36 -22 -53 -21
-20 -29 -22 -54 -13 -26 9 -32 6 -70 -34 -41 -44 -82 -58 -82 -29 0 9 -9 15
-25 15 -19 0 -25 5 -25 21 l0 20 -29 -20 c-16 -12 -39 -21 -51 -21 -18 0 -21
4 -16 23 13 45 18 87 12 102 -4 13 -20 2 -70 -48 -47 -47 -91 -78 -163 -115
-199 -102 -376 -149 -583 -157 l-135 -5 130 35 c160 44 364 120 510 189 130
62 225 143 271 231 25 48 34 56 69 64 61 15 220 6 309 -18z m-769 -1243 c-14
-35 -165 -117 -277 -148 -106 -31 -251 -36 -448 -16 -224 23 -242 28 -338 92
-46 31 -82 57 -80 58 1 2 149 -12 328 -32 380 -41 422 -39 630 27 170 54 199
57 185 19z"/>
<path d="M2905 5016 c-76 -24 -126 -59 -173 -120 -42 -55 -21 -152 41 -185 61
-32 130 24 169 139 14 41 35 99 47 128 l21 52 -33 -1 c-17 0 -50 -6 -72 -13z
m28 -63 c-3 -10 -9 -22 -14 -28 -4 -5 -14 -34 -23 -64 -18 -63 -59 -121 -85
-121 -21 0 -46 26 -56 58 -21 71 69 170 157 172 22 0 26 -4 21 -17z"/>
<path d="M3500 3618 c-41 -72 -53 -119 -54 -213 -2 -135 44 -195 153 -203 57
-4 62 -3 92 27 30 31 31 35 26 92 -4 52 -15 75 -70 167 -36 59 -73 124 -83
145 -10 20 -21 37 -26 37 -4 0 -21 -24 -38 -52z m122 -191 c92 -132 58 -234
-59 -176 -65 33 -85 74 -80 164 2 47 11 86 27 118 l23 49 32 -59 c17 -32 43
-75 57 -96z"/>
</g>
</svg>
